<?xml version="1.0" encoding="UTF-8" standalone="no"?>
<!DOCTYPE svg PUBLIC "-//W3C//DTD SVG 1.1//EN"
 "http://www.w3.org/Graphics/SVG/1.1/DTD/svg11.dtd">
<!-- Generated by graphviz version 2.40.1 (20161225.0304)
 -->
<!-- Title: dependencies Pages: 1 -->
<svg width="598pt" height="211pt"
 viewBox="0.00 0.00 598.00 211.00" xmlns="http://www.w3.org/2000/svg" xmlns:xlink="http://www.w3.org/1999/xlink">
<g id="graph0" class="graph" transform="scale(1 1) rotate(0) translate(4 207)">
<title>dependencies</title>
<polygon fill="#ffffff" stroke="transparent" points="-4,4 -4,-207 594,-207 594,4 -4,4"/>
<text text-anchor="start" x="274.0091" y="-42.4" font-family="sans-serif" font-weight="bold" font-size="14.00" fill="#000000">Legend</text>
<polygon fill="#ffffb3" stroke="transparent" points="61,-10 61,-30 81,-30 81,-10 61,-10"/>
<text text-anchor="start" x="84.629" y="-15.4" font-family="sans-serif" font-size="14.00" fill="#000000"> &#160;Declarations</text>
<polygon fill="#8dd3c7" stroke="transparent" points="174,-10 174,-30 194,-30 194,-10 174,-10"/>
<text text-anchor="start" x="197.7251" y="-15.4" font-family="sans-serif" font-size="14.00" fill="#000000"> &#160;Module</text>
<polygon fill="#80b1d3" stroke="transparent" points="260,-10 260,-30 280,-30 280,-10 260,-10"/>
<text text-anchor="start" x="283.7812" y="-15.4" font-family="sans-serif" font-size="14.00" fill="#000000"> &#160;Bootstrap</text>
<polygon fill="#fdb462" stroke="transparent" points="357,-10 357,-30 377,-30 377,-10 357,-10"/>
<text text-anchor="start" x="380.6732" y="-15.4" font-family="sans-serif" font-size="14.00" fill="#000000"> &#160;Providers</text>
<polygon fill="#fb8072" stroke="transparent" points="453,-10 453,-30 473,-30 473,-10 453,-10"/>
<text text-anchor="start" x="476.7258" y="-15.4" font-family="sans-serif" font-size="14.00" fill="#000000"> &#160;Exports</text>
<g id="clust1" class="cluster">
<title>cluster_ListsModule</title>
<polygon fill="none" stroke="#000000" stroke-dasharray="1,5" points="8,-70 8,-195 582,-195 582,-70 8,-70"/>
</g>
<g id="clust2" class="cluster">
<title>cluster_ListsModule_declarations</title>
<polygon fill="none" stroke="#000000" points="288,-78 288,-130 574,-130 574,-78 288,-78"/>
</g>
<g id="clust5" class="cluster">
<title>cluster_ListsModule_imports</title>
<polygon fill="none" stroke="#000000" points="16,-78 16,-130 280,-130 280,-78 16,-78"/>
</g>
<!-- ListsComponent -->
<g id="node1" class="node">
<title>ListsComponent</title>
<polygon fill="#ffffb3" stroke="#000000" points="566.0563,-122 457.9437,-122 457.9437,-86 566.0563,-86 566.0563,-122"/>
<text text-anchor="middle" x="512" y="-99.8" font-family="Times,serif" font-size="14.00" fill="#000000">ListsComponent</text>
</g>
<!-- ListsModule -->
<g id="node3" class="node">
<title>ListsModule</title>
<polygon fill="#8dd3c7" stroke="#000000" points="330.2731,-187 327.2731,-191 306.2731,-191 303.2731,-187 243.7269,-187 243.7269,-151 330.2731,-151 330.2731,-187"/>
<text text-anchor="middle" x="287" y="-164.8" font-family="Times,serif" font-size="14.00" fill="#000000">ListsModule</text>
</g>
<!-- ListsComponent&#45;&gt;ListsModule -->
<g id="edge1" class="edge">
<title>ListsComponent&#45;&gt;ListsModule</title>
<path fill="none" stroke="#000000" d="M512,-122.1061C512,-141.3391 512,-169 512,-169 512,-169 340.3823,-169 340.3823,-169"/>
<polygon fill="#000000" stroke="#000000" points="340.3823,-165.5001 330.3823,-169 340.3822,-172.5001 340.3823,-165.5001"/>
</g>
<!-- UpdateListComponent -->
<g id="node2" class="node">
<title>UpdateListComponent</title>
<polygon fill="#ffffb3" stroke="#000000" points="439.5379,-122 296.4621,-122 296.4621,-86 439.5379,-86 439.5379,-122"/>
<text text-anchor="middle" x="368" y="-99.8" font-family="Times,serif" font-size="14.00" fill="#000000">UpdateListComponent</text>
</g>
<!-- UpdateListComponent&#45;&gt;ListsModule -->
<g id="edge2" class="edge">
<title>UpdateListComponent&#45;&gt;ListsModule</title>
<path fill="none" stroke="#000000" d="M313.3089,-122.1061C313.3089,-122.1061 313.3089,-140.991 313.3089,-140.991"/>
<polygon fill="#000000" stroke="#000000" points="309.809,-140.9909 313.3089,-150.991 316.809,-140.991 309.809,-140.9909"/>
</g>
<!-- ListsRoutingModule -->
<g id="node4" class="node">
<title>ListsRoutingModule</title>
<polygon fill="#8dd3c7" stroke="#000000" points="271.8906,-122 268.8906,-126 247.8906,-126 244.8906,-122 140.1094,-122 140.1094,-86 271.8906,-86 271.8906,-122"/>
<text text-anchor="middle" x="206" y="-99.8" font-family="Times,serif" font-size="14.00" fill="#000000">ListsRoutingModule</text>
</g>
<!-- ListsRoutingModule&#45;&gt;ListsModule -->
<g id="edge3" class="edge">
<title>ListsRoutingModule&#45;&gt;ListsModule</title>
<path fill="none" stroke="#000000" d="M257.7795,-122.1061C257.7795,-122.1061 257.7795,-140.991 257.7795,-140.991"/>
<polygon fill="#000000" stroke="#000000" points="254.2795,-140.9909 257.7795,-150.991 261.2795,-140.991 254.2795,-140.9909"/>
</g>
<!-- SharedModule -->
<g id="node5" class="node">
<title>SharedModule</title>
<polygon fill="#8dd3c7" stroke="#000000" points="122.4231,-122 119.4231,-126 98.4231,-126 95.4231,-122 23.5769,-122 23.5769,-86 122.4231,-86 122.4231,-122"/>
<text text-anchor="middle" x="73" y="-99.8" font-family="Times,serif" font-size="14.00" fill="#000000">SharedModule</text>
</g>
<!-- SharedModule&#45;&gt;ListsModule -->
<g id="edge4" class="edge">
<title>SharedModule&#45;&gt;ListsModule</title>
<path fill="none" stroke="#000000" d="M73,-122.1061C73,-141.3391 73,-169 73,-169 73,-169 233.6939,-169 233.6939,-169"/>
<polygon fill="#000000" stroke="#000000" points="233.6939,-172.5001 243.6939,-169 233.6939,-165.5001 233.6939,-172.5001"/>
</g>
</g>
</svg>
