<?xml version="1.0" encoding="UTF-8" standalone="no"?>
<!DOCTYPE svg PUBLIC "-//W3C//DTD SVG 1.1//EN"
 "http://www.w3.org/Graphics/SVG/1.1/DTD/svg11.dtd">
<!-- Generated by graphviz version 2.40.1 (20161225.0304)
 -->
<!-- Title: dependencies Pages: 1 -->
<svg width="504pt" height="211pt"
 viewBox="0.00 0.00 504.00 211.00" xmlns="http://www.w3.org/2000/svg" xmlns:xlink="http://www.w3.org/1999/xlink">
<g id="graph0" class="graph" transform="scale(1 1) rotate(0) translate(4 207)">
<title>dependencies</title>
<polygon fill="#ffffff" stroke="transparent" points="-4,4 -4,-207 500,-207 500,4 -4,4"/>
<text text-anchor="start" x="227.0091" y="-42.4" font-family="sans-serif" font-weight="bold" font-size="14.00" fill="#000000">Legend</text>
<polygon fill="#ffffb3" stroke="transparent" points="14,-10 14,-30 34,-30 34,-10 14,-10"/>
<text text-anchor="start" x="37.629" y="-15.4" font-family="sans-serif" font-size="14.00" fill="#000000"> &#160;Declarations</text>
<polygon fill="#8dd3c7" stroke="transparent" points="127,-10 127,-30 147,-30 147,-10 127,-10"/>
<text text-anchor="start" x="150.7251" y="-15.4" font-family="sans-serif" font-size="14.00" fill="#000000"> &#160;Module</text>
<polygon fill="#80b1d3" stroke="transparent" points="213,-10 213,-30 233,-30 233,-10 213,-10"/>
<text text-anchor="start" x="236.7812" y="-15.4" font-family="sans-serif" font-size="14.00" fill="#000000"> &#160;Bootstrap</text>
<polygon fill="#fdb462" stroke="transparent" points="310,-10 310,-30 330,-30 330,-10 310,-10"/>
<text text-anchor="start" x="333.6732" y="-15.4" font-family="sans-serif" font-size="14.00" fill="#000000"> &#160;Providers</text>
<polygon fill="#fb8072" stroke="transparent" points="406,-10 406,-30 426,-30 426,-10 406,-10"/>
<text text-anchor="start" x="429.7258" y="-15.4" font-family="sans-serif" font-size="14.00" fill="#000000"> &#160;Exports</text>
<g id="clust1" class="cluster">
<title>cluster_MapsModule</title>
<polygon fill="none" stroke="#000000" stroke-dasharray="1,5" points="38,-70 38,-195 458,-195 458,-70 38,-70"/>
</g>
<g id="clust2" class="cluster">
<title>cluster_MapsModule_declarations</title>
<polygon fill="none" stroke="#000000" points="322,-78 322,-130 450,-130 450,-78 322,-78"/>
</g>
<g id="clust4" class="cluster">
<title>cluster_MapsModule_imports</title>
<polygon fill="none" stroke="#000000" points="46,-78 46,-130 314,-130 314,-78 46,-78"/>
</g>
<!-- MapsComponent -->
<g id="node1" class="node">
<title>MapsComponent</title>
<polygon fill="#ffffb3" stroke="#000000" points="442.437,-122 329.563,-122 329.563,-86 442.437,-86 442.437,-122"/>
<text text-anchor="middle" x="386" y="-99.8" font-family="Times,serif" font-size="14.00" fill="#000000">MapsComponent</text>
</g>
<!-- MapsModule -->
<g id="node2" class="node">
<title>MapsModule</title>
<polygon fill="#8dd3c7" stroke="#000000" points="283.1543,-187 280.1543,-191 259.1543,-191 256.1543,-187 192.8457,-187 192.8457,-151 283.1543,-151 283.1543,-187"/>
<text text-anchor="middle" x="238" y="-164.8" font-family="Times,serif" font-size="14.00" fill="#000000">MapsModule</text>
</g>
<!-- MapsComponent&#45;&gt;MapsModule -->
<g id="edge1" class="edge">
<title>MapsComponent&#45;&gt;MapsModule</title>
<path fill="none" stroke="#000000" d="M386,-122.1061C386,-141.3391 386,-169 386,-169 386,-169 293.2091,-169 293.2091,-169"/>
<polygon fill="#000000" stroke="#000000" points="293.2091,-165.5001 283.2091,-169 293.209,-172.5001 293.2091,-165.5001"/>
</g>
<!-- MapsRoutingModule -->
<g id="node3" class="node">
<title>MapsRoutingModule</title>
<polygon fill="#8dd3c7" stroke="#000000" points="305.7716,-122 302.7716,-126 281.7716,-126 278.7716,-122 170.2284,-122 170.2284,-86 305.7716,-86 305.7716,-122"/>
<text text-anchor="middle" x="238" y="-99.8" font-family="Times,serif" font-size="14.00" fill="#000000">MapsRoutingModule</text>
</g>
<!-- MapsRoutingModule&#45;&gt;MapsModule -->
<g id="edge2" class="edge">
<title>MapsRoutingModule&#45;&gt;MapsModule</title>
<path fill="none" stroke="#000000" d="M238,-122.1061C238,-122.1061 238,-140.991 238,-140.991"/>
<polygon fill="#000000" stroke="#000000" points="234.5001,-140.9909 238,-150.991 241.5001,-140.991 234.5001,-140.9909"/>
</g>
<!-- SharedModule -->
<g id="node4" class="node">
<title>SharedModule</title>
<polygon fill="#8dd3c7" stroke="#000000" points="152.4231,-122 149.4231,-126 128.4231,-126 125.4231,-122 53.5769,-122 53.5769,-86 152.4231,-86 152.4231,-122"/>
<text text-anchor="middle" x="103" y="-99.8" font-family="Times,serif" font-size="14.00" fill="#000000">SharedModule</text>
</g>
<!-- SharedModule&#45;&gt;MapsModule -->
<g id="edge3" class="edge">
<title>SharedModule&#45;&gt;MapsModule</title>
<path fill="none" stroke="#000000" d="M103,-122.1061C103,-141.3391 103,-169 103,-169 103,-169 182.6714,-169 182.6714,-169"/>
<polygon fill="#000000" stroke="#000000" points="182.6714,-172.5001 192.6714,-169 182.6714,-165.5001 182.6714,-172.5001"/>
</g>
</g>
</svg>
